<svg xmlns="http://www.w3.org/2000/svg">
 <defs>
 <symbol id="onsoft" viewBox="0 0 24 24">
 <title>ONsoft</title>
 <path d="m34,53.5c1,0 1.69344,-1.45881 3,-2c1.84776,-0.76537 3.87856,-0.49346 7,-1c1.97417,-0.32037 3,-1 4,-1c1,0 1.69344,-0.45881 3,-1c0.92388,-0.38268 1.82375,-0.48626 4,-1c0.97325,-0.22975 3,0 4,0c1,0 3,0 4,0c1,0 3,0 4,0c1,0 3,0 4,0c2,0 2.77025,1.02675 3,2c0.51374,2.17625 1,5 1,6c0,2 0,4 0,6c0,3 0,5 0,8c0,3 -0.79486,4.11648 -2,6c-3.45099,5.39358 -5,7 -7,11c-1,2 -1.52016,2.32367 -3,4c-2.38616,2.703 -4.0535,2.5405 -6,3c-2.17625,0.51374 -2.69255,1.186 -4,3c-0.8269,1.14727 -3.45881,1.69344 -4,3c-0.38268,0.92388 0,2 0,4c0,1 0,2 0,3c0,2 0,4 0,5c0,2 0,3 0,4c0,1 -0.76537,2.15224 0,4c0.54119,1.30656 1.88152,1.19028 5,3c1.934,1.12234 4.31001,0.33749 7,2c2.406,1.48699 4.90778,2.49622 9,3c3.97003,0.48873 5,0 9,0c4,0 5,0 7,0c2,0 4.01498,0.24437 6,0c4.09222,-0.50378 10.186,-4.69255 12,-6c4.58908,-3.30762 7.79488,-6.22021 11,-9c3.77727,-3.27601 6.22273,-4.72399 10,-8c3.20512,-2.77979 2.03551,-4.50424 5,-9c0.77852,-1.18064 2.14774,-3.94341 4,-9c1.08769,-2.96933 1.69124,-5.0718 3,-10c0.81166,-3.05634 1.9176,-3.38687 3,-6c0.76537,-1.84776 0.05629,-2.23665 1,-4c1.70131,-3.17892 3.45049,-3.45049 6,-6c2.54951,-2.54951 3.69344,-3.45881 5,-4c0.92387,-0.38268 2,0 4,0c1,0 1.133,-0.5695 5,-2c2.09717,-0.77579 3,-1 5,-1c1,0 2,0 4,0c1,0 2,0 4,0c1,0 3,-1 5,-1c1,0 3,0 4,0c2,0 3,0 4,0c2,0 3.83981,0.01291 4,1c0.50655,3.12144 0.51945,4.03874 1,7c0.50655,3.12144 1,4 1,5c0,1 0.48625,1.82375 1,4c0.4595,1.9465 0,3 0,4c0,2 0,3 0,5c0,2 0,3 0,4c0,2 0,3 0,4c0,2 0,3 0,4c0,1 -0.30745,2.186 1,4c0.8269,1.14727 1,2 3,4c1,1 1,2 2,3c1,1 1.69344,3.4588 3,4c0.92387,0.38268 1.38687,1.91761 4,3c0.92387,0.38268 2.85274,1.1731 4,2c3.62799,2.61491 7.07257,2.46613 9,3c5.61937,1.55648 6.93414,3.14429 9,4c2.92157,1.21015 5,1 6,1c2,0 4,0 5,0c2,0 5.28859,-2.86829 7,-7c1.21014,-2.92156 1.23463,-5.15224 2,-7c1.0824,-2.61313 2.29289,-5.29289 3,-6c2.12132,-2.12132 0,-6 0,-8c0,-3 0,-7 0,-9c0,-3 0,-5 0,-7c0,-3 -0.76537,-5.15224 0,-7c0.5412,-1.30656 1,-2 2,-4c1,-2 2,-4 3,-5c2,-2 3.53491,-2.31075 5,-4c2.07193,-2.38895 3,-4 4,-4c1,0 1.69345,-0.45881 3,-1c0.92389,-0.38268 2,0 3,0c2,0 5.03873,-0.48055 8,0c3.12143,0.50654 6.34619,3.70546 8,6c1.30746,1.81399 3,3 3,4c0,1 -0.16019,4.01291 0,5c0.50653,3.12144 1,4 1,8c0,1 -0.48627,4.82375 -1,7c-0.4595,1.9465 -0.49756,3.9258 -1,9c-0.09854,0.99513 -2.5405,7.0535 -3,9c-0.51373,2.17625 0.82843,4.17157 -2,7c-1.41422,1.41422 -2.77023,0.02675 -3,1c-0.51373,2.17625 -2,4 -3,5c-1,1 -2.82443,1.09789 -4,3c-0.52573,0.85065 -1.29871,-0.05146 -3,1c-1.9021,1.17557 -2.29291,2.29289 -3,3c-0.70709,0.70711 -1.14935,1.47427 -2,2c-1.9021,1.17557 -3.29291,3.29289 -4,4c-0.70709,0.70711 -1.95517,1.54916 -3,5c-0.28979,0.95709 -0.41885,1.41885 -2,3c-1.58115,1.58115 -2,2 -3,2c-1,0 -2.61731,1.07613 -3,2c-0.5412,1.30656 -2.02675,0.77025 -3,1c-2.17625,0.51375 -5,1 -6,1c-3,0 -5.69344,1.4588 -7,2c-0.92387,0.38269 -3,0 -4,0c-2,0 -3,0 -4,0c-3,0 -6,0 -7,0c-3,0 -7,0 -8,0c-1,0 -2,0 -3,0c-2,0 -4.21167,-0.71413 -7,-3c-1.09367,-0.89659 -4.21167,-1.71413 -7,-4c-1.09367,-0.89659 -3.29869,-0.82108 -5,-4c-0.47186,-0.88168 -1.97252,-3.6475 -3,-8c-0.22975,-0.97325 -1.95517,-4.54916 -3,-8c-0.28978,-0.95709 -1,-2 -1,-4c0,-1 -1,-4 -1,-5c0,-1 0,-3 0,-5c0,-2 -1,-3 -1,-4c0,-1 -0.09789,-2.82443 -2,-4c-0.85065,-0.52573 -2.69344,-2.4588 -4,-3c-0.92387,-0.38268 -2,0 -4,0c-1,0 -2,-1 -3,-1c-2,0 -3.22836,-1.14805 -6,0c-1.30656,0.5412 -1.48625,1.82375 -2,4c-0.4595,1.9465 -0.4588,3.69344 -1,5c-0.38269,0.92388 0.38269,2.07612 0,3c-0.5412,1.30656 -2,2 -2,3c0,3 0.68925,4.08025 0,7c-0.51375,2.17625 -0.47427,3.14935 -1,4c-1.17557,1.90211 -2.4588,1.69344 -3,3c-0.38269,0.92388 -1.34619,2.70546 -3,5c-1.30745,1.814 -2,2 -3,3c-2,2 -3.29289,3.29289 -4,4c-0.70711,0.70711 -2.15224,0.23463 -4,1c-1.30656,0.5412 -2.15224,1.23463 -4,2c-1.30656,0.5412 -4,1 -6,2c-2,1 -4.87856,2.49345 -8,3c-3.94835,0.64073 -5,1 -8,1c-3,0 -5,1 -7,1c-1,0 -2.01291,-0.16019 -3,0c-3.12144,0.50655 -7.02675,1.77025 -8,2c-2.17625,0.51375 -3,1 -4,1c-1,0 -2,0 -3,0c-2,0 -3,1 -4,1c-2,0 -3,0 -5,0c-1,0 -2,0 -3,0c-1,0 -2,0 -5,0c-1,0 -4,0 -5,0c-2,0 -4,0 -7,0c-1,0 -4.07612,-0.61731 -5,-1c-1.30656,-0.5412 -2,-2 -3,-2c-1,0 -2,-1 -3,-2c-1,-1 -0.96855,-1.41208 -3,-5c-1.39356,-2.4613 -3,-4 -3,-5c0,-2 -3.29289,-5.29289 -4,-6c-1.41422,-1.41422 -0.29289,-2.29289 -1,-3c-0.70711,-0.70711 0,-3 0,-4c0,-2 -1,-3 -1,-4c0,-1 0,-3 0,-5c0,-1 0,-2 0,-4c0,-1 -0.66802,-2.22936 1,-6c1.45864,-3.29733 2.61732,-5.07612 3,-6c0.54119,-1.30656 0.69344,-2.4588 2,-3c0.92388,-0.38268 3,-2 4,-2c1,0 3.9258,-0.49755 9,-1c0.99513,-0.09854 3,-1 4,-1c1,0 3,0 4,-1c1,-1 1,-2 1,-4c0,-2 0,-5 0,-6c0,-2 0,-3 0,-5c0,-1 0.70711,-2.29289 0,-3c-0.70711,-0.70711 -2,0 -4,0c-1,0 -2,0 -4,0c-1,0 -2,0 -4,0c-2,0 -4,0 -5,0c-2,0 -2.29289,0.29289 -3,1c-0.70711,0.70711 -2.29289,0.29289 -3,1c-0.70711,0.70711 -2.69344,0.4588 -4,1c-0.92388,0.38268 -3.58578,1.41422 -5,0c-0.70711,-0.70711 0.22975,-2.02675 0,-3c-0.51374,-2.17625 -2.4588,-3.69344 -3,-5c-0.38268,-0.92388 0,-2 0,-3c0,-1 0,-2 1,-2c1,0 2.02675,-0.22975 3,0c2.17625,0.51374 3,1 4,1l1,-1l0,-1" id="svg_1" stroke-width="2" stroke="#000" fill="none"/>
 
</symbol>
 </defs>
</svg>