<svg xmlns="http://www.w3.org/2000/svg"
     width="13.6199in" height="7.6612in"
     viewBox="0 0 1280 720">
  <path id="Zaznaczenie #1"
        fill="red" stroke="black" stroke-width="1"
        d="M 536.00,378.00
           C 533.55,378.00 530.28,378.13 528.00,377.26
             523.93,375.71 513.26,365.00 511.70,360.83
             510.87,358.60 511.00,355.39 511.00,353.00
             511.00,353.00 511.00,313.00 511.00,313.00
             511.00,310.55 510.87,307.28 511.74,305.00
             513.58,300.16 523.16,290.58 528.00,288.74
             530.28,287.87 533.55,288.00 536.00,288.00
             536.00,288.00 679.00,288.00 679.00,288.00
             679.00,288.00 692.00,287.08 692.00,287.08
             692.00,287.08 705.00,288.00 705.00,288.00
             705.00,288.00 1099.00,288.00 1099.00,288.00
             1099.00,288.00 1099.00,325.00 1099.00,325.00
             1099.00,325.00 1067.00,325.00 1067.00,325.00
             1067.00,325.00 1067.00,432.00 1067.00,432.00
             1067.00,432.00 1029.00,432.00 1029.00,432.00
             1029.00,432.00 1029.00,325.00 1029.00,325.00
             1029.00,325.00 878.00,325.00 878.00,325.00
             878.00,325.00 878.00,350.00 878.00,350.00
             878.00,350.00 925.00,350.00 925.00,350.00
             925.00,350.00 925.00,387.00 925.00,387.00
             925.00,387.00 878.00,387.00 878.00,387.00
             878.00,387.00 878.00,432.00 878.00,432.00
             878.00,432.00 840.00,432.00 840.00,432.00
             840.00,432.00 840.00,325.00 840.00,325.00
             840.00,325.00 775.00,325.00 775.00,325.00
             775.00,325.00 775.00,407.00 775.00,407.00
             775.00,409.39 775.13,412.60 774.30,414.83
             772.78,418.90 761.86,429.69 757.83,431.28
             755.64,432.14 752.37,432.00 750.00,432.00
             750.00,432.00 700.00,432.00 700.00,432.00
             697.55,432.00 694.28,432.13 692.00,431.26
             687.93,429.71 677.26,419.00 675.70,414.83
             674.87,412.60 675.00,409.39 675.00,407.00
             675.00,407.00 675.00,325.00 675.00,325.00
             675.00,325.00 547.00,325.00 547.00,325.00
             547.00,325.00 547.00,341.00 547.00,341.00
             547.00,341.00 586.00,341.00 586.00,341.00
             586.00,341.00 594.00,341.74 594.00,341.74
             594.00,341.74 603.00,349.00 603.00,349.00
             603.00,349.00 610.26,358.00 610.26,358.00
             610.26,358.00 611.00,366.00 611.00,366.00
             611.00,366.00 611.00,407.00 611.00,407.00
             611.00,407.00 610.26,415.00 610.26,415.00
             610.26,415.00 603.00,424.00 603.00,424.00
             603.00,424.00 594.00,431.26 594.00,431.26
             594.00,431.26 586.00,432.00 586.00,432.00
             586.00,432.00 446.00,432.00 446.00,432.00
             446.00,432.00 446.00,395.00 446.00,395.00
             446.00,395.00 575.00,395.00 575.00,395.00
             575.00,395.00 575.00,378.00 575.00,378.00
             575.00,378.00 536.00,378.00 536.00,378.00 Z
           M 711.00,325.00
           C 711.00,325.00 711.00,395.00 711.00,395.00
             711.00,395.00 739.00,395.00 739.00,395.00
             739.00,395.00 739.00,325.00 739.00,325.00
             739.00,325.00 711.00,325.00 711.00,325.00 Z
           M 346.00,395.00
           C 346.00,395.00 346.00,431.00 346.00,431.00
             346.00,431.00 384.00,431.00 384.00,431.00
             384.00,431.00 384.00,395.00 384.00,395.00
             386.39,395.00 390.47,394.69 392.47,395.99
             395.40,397.89 397.19,403.82 398.61,407.00
             402.25,415.11 405.57,425.82 412.00,432.00
             412.00,432.00 181.00,432.00 181.00,432.00
             181.00,432.00 181.00,414.00 181.00,414.00
             183.90,415.92 184.05,417.40 186.27,419.84
             186.27,419.84 192.00,425.07 192.00,425.07
             198.35,430.80 198.61,430.99 207.00,431.00
             207.00,431.00 256.00,431.00 256.00,431.00
             258.49,430.98 260.59,431.04 263.00,430.23
             267.99,428.56 277.40,419.83 279.26,415.00
             280.84,410.91 281.00,399.68 281.00,395.00
             281.00,395.00 346.00,395.00 346.00,395.00 Z" />
  <path id="Zaznaczenie"
        fill="green" stroke="black" stroke-width="1"
        d="M 222.00,288.00
           C 222.00,288.00 250.00,288.00 250.00,288.00
             253.18,288.00 261.25,287.65 263.83,288.74
             266.45,289.84 271.76,295.74 274.00,298.00
             280.15,304.20 280.98,304.39 281.00,313.00
             281.00,313.00 281.00,363.00 281.00,363.00
             281.00,363.00 281.00,400.00 281.00,400.00
             280.99,403.35 280.51,412.10 279.41,415.00
             277.88,419.01 268.03,428.51 264.00,430.15
             261.53,431.15 258.63,430.99 256.00,431.00
             256.00,431.00 206.00,431.00 206.00,431.00
             196.76,430.99 196.89,430.41 190.00,424.16
             182.62,417.47 181.02,413.90 181.00,404.00
             181.00,404.00 181.00,313.00 181.00,313.00
             181.00,310.70 180.86,307.26 181.74,305.17
             183.20,301.71 194.62,291.27 198.00,289.02
             203.59,287.15 215.61,288.00 222.00,288.00 Z
           M 377.00,288.00
           C 377.00,288.00 384.35,288.99 384.35,288.99
             384.35,288.99 390.88,303.00 390.88,303.00
             390.88,303.00 408.00,343.00 408.00,343.00
             408.00,343.00 408.00,288.00 408.00,288.00
             408.00,288.00 446.00,288.00 446.00,288.00
             446.00,288.00 446.00,432.00 446.00,432.00
             446.00,432.00 419.00,432.00 419.00,432.00
             416.46,431.97 412.61,431.90 410.39,430.60
             406.92,428.56 402.57,417.02 400.95,413.00
             400.95,413.00 384.00,375.00 384.00,375.00
             384.00,375.00 384.00,431.00 384.00,431.00
             384.00,431.00 346.00,431.00 346.00,431.00
             346.00,431.00 346.00,288.00 346.00,288.00
             346.00,288.00 377.00,288.00 377.00,288.00 Z
           M 217.00,325.00
           C 217.00,325.00 217.00,395.00 217.00,395.00
             217.00,395.00 245.00,395.00 245.00,395.00
             245.00,395.00 245.00,325.00 245.00,325.00
             245.00,325.00 217.00,325.00 217.00,325.00 Z" />
</svg>