<?xml version="1.0"?>
<svg version="1.1" xmlns="http://www.w3.org/2000/svg" width="160" height="90" style="border: dashed 2px #aaa"><path fill="#" d="M23.736,42.2q-3.164,0-5.432,2.268q-2.296,2.296-2.296,5.46l0,4.228q0,3.108,2.296,5.404t5.432,2.296q3.164,0,5.46-2.296q2.268-2.268,2.268-5.404l0-4.228q0-3.192-2.268-5.46t-5.46-2.268z M29.728,49.928l0,4.228q0,2.548-1.792,4.284q-1.764,1.68-4.2,1.68t-4.172-1.68q-1.792-1.736-1.792-4.284l0-4.228q0-2.352,1.792-4.2q1.792-1.792,4.172-1.792q2.352,0,4.2,1.792q1.792,1.848,1.792,4.2z M35.82752,61.8l1.736,0l0-11.872q0-2.352,1.792-4.2q1.792-1.792,4.144-1.792t4.2,1.792q1.792,1.848,1.792,4.2l0,11.872l1.736,0l0-11.872q0-3.192-2.268-5.46t-5.46-2.268q-3.136,0-5.404,2.268t-2.268,5.46l0,11.872z"/><path fill="#" d="M63.16704,56.9l0.224,1.82s0.98,0.28,2.352,0.28c1.54,0,2.296-0.476,2.296-1.372c0-2.296-7.476-1.456-7.476-6.44c0-3.5,2.8-4.788,5.768-4.788c2.52,0,5.208,0.84,5.208,0.84l-0.112,4.2l-2.38,0l-0.42-1.68s-0.812-0.28-1.932-0.28c-1.204,0-1.932,0.504-1.932,1.428c0,2.268,7.476,1.288,7.476,6.132c0,3.22-2.604,5.04-6.44,5.04c-2.66,0-5.152-0.616-5.152-0.616l0-4.564l2.52,0z M83.70532,46.4c4.536,0,7.056,2.744,7.056,7.56c0,5.04-2.94,8.12-7.476,8.12c-4.564,0-7.14-2.38-7.14-7.7c0-5.04,2.996-7.98,7.56-7.98z M83.56532,49.76c-2.044,0-3.08,1.12-3.08,4.48c0,3.08,0.896,4.48,2.94,4.48c2.016,0,2.996-1.26,2.996-4.62c0-2.856-0.84-4.34-2.856-4.34z M97.3276,46.96l0-1.26c0-3.556,2.044-5.936,6.02-5.936c3.024,0,4.956,1.036,4.956,1.036l-0.084,4.116l-2.52,0l-0.42-1.96s-0.672-0.112-1.596-0.112c-1.54,0-2.156,0.924-2.156,2.38l0,1.736l3.64,0l-0.084,2.8l-3.556,0l0,9.1l2.8,0.7l0,2.24l-9.24,0l0-2.24l2.24-0.7l0-9.1l-2.52,0l0-2.38z M119.48988,58.216l1.008,2.128c-1.372,1.008-2.94,1.736-4.76,1.736c-3.22,0-4.144-2.24-4.144-5.46l0-6.44l-2.604,0l0-2.716l2.604-0.364l0-3.864l4.2-0.756l0,4.62l3.92,0l0,3.08l-3.92,0l0,6.16c0,1.792,0.308,2.52,1.484,2.52c0.756,0,1.848-0.448,2.212-0.644z"/></svg>
