<?xml version="1.0" encoding="UTF-8"?>
<svg xmlns="http://www.w3.org/2000/svg" xmlns:xlink="http://www.w3.org/1999/xlink" width="0" height="0">
<symbol id="onsoft"
     width="13.6199in" height="7.6612in"
     viewBox="0 0 1280 720">
<path
        stroke-width="1"
        d="M 536.00,378.00
           C 533.55,378.00 530.28,378.13 528.00,377.26
             523.93,375.71 513.26,365.00 511.70,360.83
             510.87,358.60 511.00,355.39 511.00,353.00
             511.00,353.00 511.00,313.00 511.00,313.00
             511.00,310.55 510.87,307.28 511.74,305.00
             513.58,300.16 523.16,290.58 528.00,288.74
             530.28,287.87 533.55,288.00 536.00,288.00
             536.00,288.00 679.00,288.00 679.00,288.00
             679.00,288.00 692.00,287.08 692.00,287.08
             692.00,287.08 705.00,288.00 705.00,288.00
             705.00,288.00 1099.00,288.00 1099.00,288.00
             1099.00,288.00 1099.00,325.00 1099.00,325.00
             1099.00,325.00 1067.00,325.00 1067.00,325.00
             1067.00,325.00 1067.00,432.00 1067.00,432.00
             1067.00,432.00 1029.00,432.00 1029.00,432.00
             1029.00,432.00 1029.00,325.00 1029.00,325.00
             1029.00,325.00 878.00,325.00 878.00,325.00
             878.00,325.00 878.00,350.00 878.00,350.00
             878.00,350.00 925.00,350.00 925.00,350.00
             925.00,350.00 925.00,387.00 925.00,387.00
             925.00,387.00 878.00,387.00 878.00,387.00
             878.00,387.00 878.00,432.00 878.00,432.00
             878.00,432.00 840.00,432.00 840.00,432.00
             840.00,432.00 840.00,325.00 840.00,325.00
             840.00,325.00 775.00,325.00 775.00,325.00
             775.00,325.00 775.00,407.00 775.00,407.00
             775.00,409.39 775.13,412.60 774.30,414.83
             772.78,418.90 761.86,429.69 757.83,431.28
             755.64,432.14 752.37,432.00 750.00,432.00
             750.00,432.00 700.00,432.00 700.00,432.00
             697.55,432.00 694.28,432.13 692.00,431.26
             687.93,429.71 677.26,419.00 675.70,414.83
             674.87,412.60 675.00,409.39 675.00,407.00
             675.00,407.00 675.00,325.00 675.00,325.00
             675.00,325.00 547.00,325.00 547.00,325.00
             547.00,325.00 547.00,341.00 547.00,341.00
             547.00,341.00 586.00,341.00 586.00,341.00
             586.00,341.00 594.00,341.74 594.00,341.74
             594.00,341.74 603.00,349.00 603.00,349.00
             603.00,349.00 610.26,358.00 610.26,358.00
             610.26,358.00 611.00,366.00 611.00,366.00
             611.00,366.00 611.00,407.00 611.00,407.00
             611.00,407.00 610.26,415.00 610.26,415.00
             610.26,415.00 603.00,424.00 603.00,424.00
             603.00,424.00 594.00,431.26 594.00,431.26
             594.00,431.26 586.00,432.00 586.00,432.00
             586.00,432.00 446.00,432.00 446.00,432.00
             446.00,432.00 446.00,395.00 446.00,395.00
             446.00,395.00 575.00,395.00 575.00,395.00
             575.00,395.00 575.00,378.00 575.00,378.00
             575.00,378.00 536.00,378.00 536.00,378.00 Z
           M 711.00,325.00
           C 711.00,325.00 711.00,395.00 711.00,395.00
             711.00,395.00 739.00,395.00 739.00,395.00
             739.00,395.00 739.00,325.00 739.00,325.00
             739.00,325.00 711.00,325.00 711.00,325.00 Z
           M 346.00,395.00
           C 346.00,395.00 346.00,431.00 346.00,431.00
             346.00,431.00 384.00,431.00 384.00,431.00
             384.00,431.00 384.00,395.00 384.00,395.00
             386.39,395.00 390.47,394.69 392.47,395.99
             395.40,397.89 397.19,403.82 398.61,407.00
             402.25,415.11 405.57,425.82 412.00,432.00
             412.00,432.00 181.00,432.00 181.00,432.00
             181.00,432.00 181.00,414.00 181.00,414.00
             183.90,415.92 184.05,417.40 186.27,419.84
             186.27,419.84 192.00,425.07 192.00,425.07
             198.35,430.80 198.61,430.99 207.00,431.00
             207.00,431.00 256.00,431.00 256.00,431.00
             258.49,430.98 260.59,431.04 263.00,430.23
             267.99,428.56 277.40,419.83 279.26,415.00
             280.84,410.91 281.00,399.68 281.00,395.00
             281.00,395.00 346.00,395.00 346.00,395.00 Z" />
<path id="Zaznaczenie"
        stroke-width="1"
        d="M 222.00,288.00
           C 222.00,288.00 250.00,288.00 250.00,288.00
             253.18,288.00 261.25,287.65 263.83,288.74
             266.45,289.84 271.76,295.74 274.00,298.00
             280.15,304.20 280.98,304.39 281.00,313.00
             281.00,313.00 281.00,363.00 281.00,363.00
             281.00,363.00 281.00,400.00 281.00,400.00
             280.99,403.35 280.51,412.10 279.41,415.00
             277.88,419.01 268.03,428.51 264.00,430.15
             261.53,431.15 258.63,430.99 256.00,431.00
             256.00,431.00 206.00,431.00 206.00,431.00
             196.76,430.99 196.89,430.41 190.00,424.16
             182.62,417.47 181.02,413.90 181.00,404.00
             181.00,404.00 181.00,313.00 181.00,313.00
             181.00,310.70 180.86,307.26 181.74,305.17
             183.20,301.71 194.62,291.27 198.00,289.02
             203.59,287.15 215.61,288.00 222.00,288.00 Z
           M 377.00,288.00
           C 377.00,288.00 384.35,288.99 384.35,288.99
             384.35,288.99 390.88,303.00 390.88,303.00
             390.88,303.00 408.00,343.00 408.00,343.00
             408.00,343.00 408.00,288.00 408.00,288.00
             408.00,288.00 446.00,288.00 446.00,288.00
             446.00,288.00 446.00,432.00 446.00,432.00
             446.00,432.00 419.00,432.00 419.00,432.00
             416.46,431.97 412.61,431.90 410.39,430.60
             406.92,428.56 402.57,417.02 400.95,413.00
             400.95,413.00 384.00,375.00 384.00,375.00
             384.00,375.00 384.00,431.00 384.00,431.00
             384.00,431.00 346.00,431.00 346.00,431.00
             346.00,431.00 346.00,288.00 346.00,288.00
             346.00,288.00 377.00,288.00 377.00,288.00 Z
           M 217.00,325.00
           C 217.00,325.00 217.00,395.00 217.00,395.00
             217.00,395.00 245.00,395.00 245.00,395.00
             245.00,395.00 245.00,325.00 245.00,325.00
             245.00,325.00 217.00,325.00 217.00,325.00 Z" />
</symbol>
<!-- Generator: Adobe Illustrator 19.0.0, SVG Export Plug-In . SVG Version: 6.00 Build 0)  -->
<symbol id="on" x="0px" y="0px"
	 viewBox="0 0 512 512" style="enable-background:new 0 0 512 512;" xml:space="preserve">
<circle style="fill:#88C5CC;" cx="256" cy="256" r="256"/>
<path style="fill:#80B9BF;" d="M477.64,384.044l-78.776-195.3C395.764,179.064,386.672,172,376,172h-8H140c-13.2,0-24,10.8-24,24
	v2.048v2.056V316v2.048v2.056c0,4.64,1.572,8.96,4.14,12.632l67.976,170.096C209.744,508.764,232.488,512,256,512
	C350.72,512,433.364,460.516,477.64,384.044z"/>
<path style="fill:#CCCCCC;" d="M400,316c0,13.2-10.8,24-24,24H140c-13.2,0-24-10.8-24-24V196c0-13.2,10.8-24,24-24h236
	c13.2,0,24,10.8,24,24V316z"/>
<path style="fill:#B3B3B3;" d="M376,172h-8c13.2,0,24,10.8,24,24v120c0,13.2-10.8,24-24,24h8c13.2,0,24-10.8,24-24V196
	C400,182.8,389.2,172,376,172z"/>
<path style="fill:#4AB8A1;" d="M140,324c-4.336,0-8-3.664-8-8V196c0-4.336,3.664-8,8-8h236c4.336,0,8,3.664,8,8v120
	c0,4.336-3.664,8-8,8H140z"/>
<path style="fill:#43A691;" d="M140,316V196c0-4.336,3.664-8,8-8h-8c-4.336,0-8,3.664-8,8v120c0,4.336,3.664,8,8,8h8
	C143.664,324,140,320.336,140,316z"/>
<path style="fill:#F5F5F5;" d="M260,324c-4.336,0-8-3.664-8-8V196c0-4.336,3.664-8,8-8h116c4.336,0,8,3.664,8,8v120
	c0,4.336-3.664,8-8,8H260z"/>
<path style="fill:#E6E6E6;" d="M376,188h-16c4.336,0,8,3.664,8,8v120c0,4.336-3.664,8-8,8h16c4.336,0,8-3.664,8-8V196
	C384,191.664,380.336,188,376,188z"/>
<g>
<path style="fill:#4AB8A1;" d="M274.876,256.024c0-5.608,1.564-9.976,4.688-13.096c3.124-3.124,7.476-4.692,13.056-4.692
		c5.724,0,10.124,1.54,13.224,4.604s4.64,7.372,4.64,12.904c0,4.02-0.676,7.308-2.028,9.884c-1.352,2.572-3.304,4.572-5.86,6
		c-2.56,1.424-5.744,2.144-9.556,2.144c-3.876,0-7.084-0.616-9.616-1.852c-2.54-1.24-4.596-3.192-6.18-5.864
		C275.664,263.384,274.876,260.04,274.876,256.024z M285.492,256.072c0,3.468,0.644,5.96,1.928,7.476
		c1.288,1.516,3.048,2.272,5.26,2.272c2.28,0,4.052-0.748,5.296-2.228c1.248-1.484,1.876-4.148,1.876-7.992
		c0-3.24-0.652-5.596-1.956-7.088s-3.076-2.24-5.304-2.24c-2.14,0-3.86,0.752-5.156,2.268S285.492,252.572,285.492,256.072z"/>
<path style="fill:#4AB8A1;" d="M316.264,238.82h9.916l12.936,19.008V238.82h10.008v34.36h-10.008l-12.868-18.868v18.868h-9.984
		L316.264,238.82L316.264,238.82z"/>
</g>
<g>
</g>
<g>
</g>
<g>
</g>
<g>
</g>
<g>
</g>
<g>
</g>
<g>
</g>
<g>
</g>
<g>
</g>
<g>
</g>
<g>
</g>
<g>
</g>
<g>
</g>
<g>
</g>
<g>
</g>
</symbol>
</svg>
